<svg width="293" height="34" viewBox="0 0 293 34" fill="none" xmlns="http://www.w3.org/2000/svg">
<g clip-path="url(#clip0_8_3)">
<path d="M15.4272 0H1.57279C0.704162 0 0 0.869847 0 1.94286V14.0571C0 15.1302 0.704162 16 1.57279 16H15.4272C16.2958 16 17 15.1302 17 14.0571V1.94286C17 0.869847 16.2958 0 15.4272 0Z" fill="#0099FF"/>
<path d="M18.5728 17H32.4272C33.2958 17 34 17.9242 34 19.0643V31.9357C34 33.0758 33.2958 34 32.4272 34H18.5728C17.7042 34 17 33.0758 17 31.9357V19.0643C17 17.9242 17.7042 17 18.5728 17Z" fill="#0099FF"/>
<path d="M27 14C30.866 14 34 10.866 34 7C34 3.13401 30.866 0 27 0C23.134 0 20 3.13401 20 7C20 10.866 23.134 14 27 14Z" fill="#99D6FF"/>
<path d="M7 34C3.13401 34 0 30.866 0 27C0 23.134 3.13401 20 7 20C10.866 20 14 23.134 14 27C14 30.866 10.866 34 7 34Z" fill="#99D6FF"/>
</g>
<path d="M52.7216 25V7.54545H63.9034V10.196H55.8835V14.9347H63.1364V17.5852H55.8835V25H52.7216ZM66.4602 25V11.9091H69.4517V14.0909H69.5881C69.8267 13.3352 70.2358 12.7528 70.8153 12.3438C71.4006 11.929 72.0682 11.7216 72.8182 11.7216C72.9886 11.7216 73.179 11.7301 73.3892 11.7472C73.6051 11.7585 73.7841 11.7784 73.9261 11.8068V14.6449C73.7955 14.5994 73.5881 14.5597 73.304 14.5256C73.0256 14.4858 72.7557 14.4659 72.4943 14.4659C71.9318 14.4659 71.4261 14.5881 70.9773 14.8324C70.5341 15.071 70.1847 15.4034 69.929 15.8295C69.6733 16.2557 69.5455 16.7472 69.5455 17.304V25H66.4602ZM81.147 25.2557C79.8686 25.2557 78.7607 24.9744 77.8232 24.4119C76.8857 23.8494 76.1584 23.0625 75.6413 22.0511C75.13 21.0398 74.8743 19.858 74.8743 18.5057C74.8743 17.1534 75.13 15.9687 75.6413 14.9517C76.1584 13.9347 76.8857 13.1449 77.8232 12.5824C78.7607 12.0199 79.8686 11.7386 81.147 11.7386C82.4254 11.7386 83.5334 12.0199 84.4709 12.5824C85.4084 13.1449 86.1328 13.9347 86.6442 14.9517C87.1612 15.9687 87.4197 17.1534 87.4197 18.5057C87.4197 19.858 87.1612 21.0398 86.6442 22.0511C86.1328 23.0625 85.4084 23.8494 84.4709 24.4119C83.5334 24.9744 82.4254 25.2557 81.147 25.2557ZM81.1641 22.7841C81.8572 22.7841 82.4368 22.5937 82.9027 22.2131C83.3686 21.8267 83.7152 21.3097 83.9425 20.6619C84.1754 20.0142 84.2919 19.2926 84.2919 18.4972C84.2919 17.696 84.1754 16.9716 83.9425 16.3239C83.7152 15.6705 83.3686 15.1506 82.9027 14.7642C82.4368 14.3778 81.8572 14.1847 81.1641 14.1847C80.4538 14.1847 79.8629 14.3778 79.3913 14.7642C78.9254 15.1506 78.576 15.6705 78.343 16.3239C78.1158 16.9716 78.0021 17.696 78.0021 18.4972C78.0021 19.2926 78.1158 20.0142 78.343 20.6619C78.576 21.3097 78.9254 21.8267 79.3913 22.2131C79.8629 22.5937 80.4538 22.7841 81.1641 22.7841ZM93.1236 17.3295V25H90.0384V11.9091H92.9872V14.1335H93.1406C93.4418 13.4006 93.9219 12.8182 94.581 12.3864C95.2457 11.9545 96.0668 11.7386 97.044 11.7386C97.9474 11.7386 98.7344 11.9318 99.4048 12.3182C100.081 12.7045 100.604 13.2642 100.973 13.9972C101.348 14.7301 101.533 15.6193 101.527 16.6648V25H98.4418V17.142C98.4418 16.267 98.2145 15.5824 97.7599 15.0881C97.3111 14.5937 96.6889 14.3466 95.8935 14.3466C95.3537 14.3466 94.8736 14.4659 94.4531 14.7045C94.0384 14.9375 93.7116 15.2756 93.473 15.7188C93.2401 16.1619 93.1236 16.6989 93.1236 17.3295ZM111.2 11.9091V14.2955H103.675V11.9091H111.2ZM105.533 8.77273H108.618V21.0625C108.618 21.4773 108.68 21.7955 108.805 22.017C108.936 22.233 109.107 22.3807 109.317 22.4602C109.527 22.5398 109.76 22.5795 110.016 22.5795C110.209 22.5795 110.385 22.5653 110.544 22.5369C110.709 22.5085 110.834 22.483 110.919 22.4602L111.439 24.8722C111.274 24.929 111.038 24.9915 110.732 25.0597C110.43 25.1278 110.061 25.1676 109.624 25.179C108.851 25.2017 108.155 25.0852 107.536 24.8295C106.916 24.5682 106.425 24.1648 106.061 23.6193C105.703 23.0739 105.527 22.392 105.533 21.5739V8.77273ZM119.435 25.2557C118.123 25.2557 116.989 24.983 116.035 24.4375C115.086 23.8864 114.356 23.108 113.844 22.1023C113.333 21.0909 113.077 19.9006 113.077 18.5312C113.077 17.1847 113.333 16.0028 113.844 14.9858C114.362 13.9631 115.083 13.1676 116.009 12.5994C116.935 12.0256 118.023 11.7386 119.273 11.7386C120.08 11.7386 120.842 11.8693 121.558 12.1307C122.279 12.3864 122.915 12.7841 123.467 13.3239C124.023 13.8636 124.461 14.5511 124.779 15.3864C125.097 16.2159 125.256 17.2045 125.256 18.3523V19.2983H114.526V17.2188H122.299C122.293 16.6278 122.165 16.1023 121.915 15.642C121.665 15.1761 121.316 14.8097 120.867 14.5426C120.424 14.2756 119.907 14.142 119.316 14.142C118.685 14.142 118.131 14.2955 117.654 14.6023C117.177 14.9034 116.805 15.3011 116.538 15.7955C116.276 16.2841 116.143 16.821 116.137 17.4062V19.2216C116.137 19.983 116.276 20.6364 116.555 21.1818C116.833 21.7216 117.222 22.1364 117.722 22.4261C118.222 22.7102 118.808 22.8523 119.478 22.8523C119.927 22.8523 120.333 22.7898 120.697 22.6648C121.06 22.5341 121.376 22.3438 121.643 22.0938C121.91 21.8438 122.112 21.5341 122.248 21.1648L125.129 21.4886C124.947 22.25 124.6 22.9148 124.089 23.483C123.583 24.0455 122.935 24.483 122.146 24.7955C121.356 25.1023 120.452 25.2557 119.435 25.2557ZM130.952 17.3295V25H127.866V11.9091H130.815V14.1335H130.969C131.27 13.4006 131.75 12.8182 132.409 12.3864C133.074 11.9545 133.895 11.7386 134.872 11.7386C135.776 11.7386 136.563 11.9318 137.233 12.3182C137.909 12.7045 138.432 13.2642 138.801 13.9972C139.176 14.7301 139.361 15.6193 139.355 16.6648V25H136.27V17.142C136.27 16.267 136.043 15.5824 135.588 15.0881C135.139 14.5937 134.517 14.3466 133.722 14.3466C133.182 14.3466 132.702 14.4659 132.281 14.7045C131.866 14.9375 131.54 15.2756 131.301 15.7188C131.068 16.1619 130.952 16.6989 130.952 17.3295ZM147.349 25.2301C146.321 25.2301 145.401 24.9659 144.588 24.4375C143.776 23.9091 143.134 23.142 142.662 22.1364C142.19 21.1307 141.955 19.9091 141.955 18.4716C141.955 17.017 142.193 15.7898 142.67 14.7898C143.153 13.7841 143.804 13.0256 144.622 12.5142C145.44 11.9972 146.352 11.7386 147.358 11.7386C148.125 11.7386 148.756 11.8693 149.25 12.1307C149.744 12.3864 150.136 12.696 150.426 13.0597C150.716 13.4176 150.94 13.7557 151.099 14.0739H151.227V7.54545H154.321V25H151.287V22.9375H151.099C150.94 23.2557 150.71 23.5937 150.409 23.9517C150.108 24.304 149.71 24.6051 149.216 24.8551C148.722 25.1051 148.099 25.2301 147.349 25.2301ZM148.21 22.6989C148.864 22.6989 149.42 22.5227 149.881 22.1705C150.341 21.8125 150.69 21.3153 150.929 20.679C151.168 20.0426 151.287 19.3011 151.287 18.4545C151.287 17.608 151.168 16.8722 150.929 16.2472C150.696 15.6222 150.349 15.1364 149.889 14.7898C149.435 14.4432 148.875 14.2699 148.21 14.2699C147.523 14.2699 146.949 14.4489 146.489 14.8068C146.028 15.1648 145.682 15.6591 145.449 16.2898C145.216 16.9205 145.099 17.642 145.099 18.4545C145.099 19.2727 145.216 20.0028 145.449 20.6449C145.688 21.2812 146.037 21.7841 146.497 22.1534C146.963 22.517 147.534 22.6989 148.21 22.6989ZM178.638 13.4347H175.451C175.36 12.9119 175.192 12.4489 174.948 12.0455C174.704 11.6364 174.4 11.2898 174.036 11.0057C173.673 10.7216 173.258 10.5085 172.792 10.3665C172.332 10.2188 171.835 10.1449 171.3 10.1449C170.352 10.1449 169.511 10.3835 168.778 10.8608C168.045 11.3324 167.471 12.0256 167.056 12.9403C166.641 13.8494 166.434 14.9602 166.434 16.2727C166.434 17.608 166.641 18.733 167.056 19.6477C167.477 20.5568 168.05 21.2443 168.778 21.7102C169.511 22.1705 170.349 22.4006 171.292 22.4006C171.815 22.4006 172.303 22.3324 172.758 22.196C173.218 22.054 173.63 21.8466 173.994 21.5739C174.363 21.3011 174.673 20.9659 174.923 20.5682C175.178 20.1705 175.354 19.7159 175.451 19.2045L178.638 19.2216C178.519 20.0511 178.261 20.8295 177.863 21.5568C177.471 22.2841 176.957 22.9261 176.32 23.483C175.684 24.0341 174.94 24.4659 174.087 24.7784C173.235 25.0852 172.289 25.2386 171.249 25.2386C169.715 25.2386 168.346 24.8835 167.141 24.1733C165.937 23.4631 164.988 22.4375 164.295 21.0966C163.602 19.7557 163.255 18.1477 163.255 16.2727C163.255 14.392 163.604 12.7841 164.303 11.4489C165.002 10.108 165.954 9.08239 167.158 8.37216C168.363 7.66193 169.727 7.30682 171.249 7.30682C172.221 7.30682 173.124 7.44318 173.96 7.71591C174.795 7.98864 175.539 8.3892 176.192 8.91761C176.846 9.44034 177.383 10.0824 177.803 10.8438C178.229 11.5994 178.508 12.4631 178.638 13.4347ZM184.483 17.3295V25H181.398V7.54545H184.415V14.1335H184.568C184.875 13.3949 185.349 12.8125 185.991 12.3864C186.639 11.9545 187.463 11.7386 188.463 11.7386C189.372 11.7386 190.165 11.929 190.841 12.3097C191.517 12.6903 192.04 13.2472 192.409 13.9801C192.784 14.7131 192.972 15.608 192.972 16.6648V25H189.886V17.142C189.886 16.2614 189.659 15.5767 189.205 15.0881C188.756 14.5937 188.125 14.3466 187.312 14.3466C186.767 14.3466 186.278 14.4659 185.847 14.7045C185.42 14.9375 185.085 15.2756 184.841 15.7188C184.602 16.1619 184.483 16.6989 184.483 17.3295ZM199.884 25.2642C199.054 25.2642 198.307 25.1165 197.642 24.821C196.983 24.5199 196.46 24.0767 196.074 23.4915C195.693 22.9062 195.503 22.1847 195.503 21.3267C195.503 20.5881 195.639 19.9773 195.912 19.4943C196.185 19.0114 196.557 18.625 197.028 18.3352C197.5 18.0455 198.031 17.8267 198.622 17.679C199.219 17.5256 199.835 17.4148 200.472 17.3466C201.239 17.267 201.861 17.196 202.338 17.1335C202.815 17.0653 203.162 16.9631 203.378 16.8267C203.599 16.6847 203.71 16.4659 203.71 16.1705V16.1193C203.71 15.4773 203.52 14.9801 203.139 14.6278C202.759 14.2756 202.21 14.0994 201.494 14.0994C200.739 14.0994 200.139 14.2642 199.696 14.5938C199.259 14.9233 198.963 15.3125 198.81 15.7614L195.929 15.3523C196.156 14.5568 196.531 13.892 197.054 13.358C197.577 12.8182 198.216 12.4148 198.972 12.1477C199.727 11.875 200.563 11.7386 201.477 11.7386C202.108 11.7386 202.736 11.8125 203.361 11.9602C203.986 12.108 204.557 12.3523 205.074 12.6932C205.591 13.0284 206.006 13.4858 206.318 14.0653C206.636 14.6449 206.795 15.3693 206.795 16.2386V25H203.83V23.2017H203.727C203.54 23.5653 203.276 23.9062 202.935 24.2244C202.599 24.5369 202.176 24.7898 201.665 24.983C201.159 25.1705 200.565 25.2642 199.884 25.2642ZM200.685 22.9972C201.304 22.9972 201.841 22.875 202.295 22.6307C202.75 22.3807 203.099 22.0511 203.344 21.642C203.594 21.233 203.719 20.7869 203.719 20.304V18.7614C203.622 18.8409 203.457 18.9148 203.224 18.983C202.997 19.0511 202.741 19.1108 202.457 19.1619C202.173 19.2131 201.892 19.2585 201.614 19.2983C201.335 19.3381 201.094 19.3722 200.889 19.4006C200.429 19.4631 200.017 19.5653 199.653 19.7074C199.29 19.8494 199.003 20.0483 198.793 20.304C198.582 20.554 198.477 20.8778 198.477 21.2756C198.477 21.8438 198.685 22.2727 199.099 22.5625C199.514 22.8523 200.043 22.9972 200.685 22.9972ZM212.983 7.54545V25H209.898V7.54545H212.983ZM219.241 7.54545V25H216.156V7.54545H219.241ZM228.209 25.2557C226.896 25.2557 225.763 24.983 224.808 24.4375C223.859 23.8864 223.129 23.108 222.618 22.1023C222.107 21.0909 221.851 19.9006 221.851 18.5312C221.851 17.1847 222.107 16.0028 222.618 14.9858C223.135 13.9631 223.857 13.1676 224.783 12.5994C225.709 12.0256 226.797 11.7386 228.047 11.7386C228.854 11.7386 229.615 11.8693 230.331 12.1307C231.053 12.3864 231.689 12.7841 232.24 13.3239C232.797 13.8636 233.234 14.5511 233.553 15.3864C233.871 16.2159 234.03 17.2045 234.03 18.3523V19.2983H223.3V17.2188H231.072C231.067 16.6278 230.939 16.1023 230.689 15.642C230.439 15.1761 230.089 14.8097 229.641 14.5426C229.197 14.2756 228.68 14.142 228.089 14.142C227.459 14.142 226.905 14.2955 226.428 14.6023C225.95 14.9034 225.578 15.3011 225.311 15.7955C225.05 16.2841 224.916 16.821 224.911 17.4062V19.2216C224.911 19.983 225.05 20.6364 225.328 21.1818C225.607 21.7216 225.996 22.1364 226.496 22.4261C226.996 22.7102 227.581 22.8523 228.251 22.8523C228.7 22.8523 229.107 22.7898 229.47 22.6648C229.834 22.5341 230.149 22.3438 230.416 22.0938C230.683 21.8438 230.885 21.5341 231.021 21.1648L233.902 21.4886C233.72 22.25 233.374 22.9148 232.862 23.483C232.357 24.0455 231.709 24.483 230.919 24.7955C230.129 25.1023 229.226 25.2557 228.209 25.2557ZM239.725 17.3295V25H236.64V11.9091H239.589V14.1335H239.742C240.043 13.4006 240.523 12.8182 241.183 12.3864C241.847 11.9545 242.668 11.7386 243.646 11.7386C244.549 11.7386 245.336 11.9318 246.006 12.3182C246.683 12.7045 247.205 13.2642 247.575 13.9972C247.95 14.7301 248.134 15.6193 248.129 16.6648V25H245.043V17.142C245.043 16.267 244.816 15.5824 244.362 15.0881C243.913 14.5937 243.29 14.3466 242.495 14.3466C241.955 14.3466 241.475 14.4659 241.055 14.7045C240.64 14.9375 240.313 15.2756 240.075 15.7188C239.842 16.1619 239.725 16.6989 239.725 17.3295ZM256.958 30.1818C255.85 30.1818 254.898 30.0313 254.103 29.7301C253.308 29.4347 252.668 29.0369 252.185 28.5369C251.702 28.0369 251.367 27.483 251.18 26.875L253.958 26.2017C254.083 26.4574 254.265 26.7102 254.504 26.9602C254.742 27.2159 255.063 27.4261 255.467 27.5909C255.876 27.7614 256.39 27.8466 257.009 27.8466C257.884 27.8466 258.609 27.6335 259.183 27.2074C259.756 26.7869 260.043 26.0938 260.043 25.1278V22.6477H259.89C259.731 22.9659 259.498 23.2926 259.191 23.6278C258.89 23.9631 258.489 24.2443 257.989 24.4716C257.495 24.6989 256.873 24.8125 256.123 24.8125C255.117 24.8125 254.205 24.5767 253.387 24.1051C252.575 23.6278 251.927 22.9176 251.444 21.9744C250.967 21.0256 250.728 19.8381 250.728 18.4119C250.728 16.9744 250.967 15.7614 251.444 14.7727C251.927 13.7784 252.577 13.0256 253.396 12.5142C254.214 11.9972 255.126 11.7386 256.131 11.7386C256.898 11.7386 257.529 11.8693 258.023 12.1307C258.523 12.3864 258.921 12.696 259.217 13.0597C259.512 13.4176 259.737 13.7557 259.89 14.0739H260.06V11.9091H263.103V25.2131C263.103 26.3324 262.836 27.2585 262.302 27.9915C261.768 28.7244 261.038 29.2727 260.112 29.6364C259.185 30 258.134 30.1818 256.958 30.1818ZM256.984 22.392C257.637 22.392 258.194 22.233 258.654 21.9148C259.114 21.5966 259.464 21.1392 259.702 20.5426C259.941 19.946 260.06 19.2301 260.06 18.3949C260.06 17.571 259.941 16.8494 259.702 16.2301C259.469 15.6108 259.123 15.1307 258.663 14.7898C258.208 14.4432 257.648 14.2699 256.984 14.2699C256.296 14.2699 255.722 14.4489 255.262 14.8068C254.802 15.1648 254.455 15.6562 254.222 16.2812C253.989 16.9006 253.873 17.6051 253.873 18.3949C253.873 19.196 253.989 19.8977 254.222 20.5C254.461 21.0966 254.81 21.5625 255.271 21.8977C255.737 22.2273 256.308 22.392 256.984 22.392ZM272.06 25.2557C270.748 25.2557 269.614 24.983 268.66 24.4375C267.711 23.8864 266.981 23.108 266.469 22.1023C265.958 21.0909 265.702 19.9006 265.702 18.5312C265.702 17.1847 265.958 16.0028 266.469 14.9858C266.987 13.9631 267.708 13.1676 268.634 12.5994C269.56 12.0256 270.648 11.7386 271.898 11.7386C272.705 11.7386 273.467 11.8693 274.183 12.1307C274.904 12.3864 275.54 12.7841 276.092 13.3239C276.648 13.8636 277.086 14.5511 277.404 15.3864C277.722 16.2159 277.881 17.2045 277.881 18.3523V19.2983H267.151V17.2188H274.924C274.918 16.6278 274.79 16.1023 274.54 15.642C274.29 15.1761 273.941 14.8097 273.492 14.5426C273.049 14.2756 272.532 14.142 271.941 14.142C271.31 14.142 270.756 14.2955 270.279 14.6023C269.802 14.9034 269.43 15.3011 269.163 15.7955C268.901 16.2841 268.768 16.821 268.762 17.4062V19.2216C268.762 19.983 268.901 20.6364 269.18 21.1818C269.458 21.7216 269.847 22.1364 270.347 22.4261C270.847 22.7102 271.433 22.8523 272.103 22.8523C272.552 22.8523 272.958 22.7898 273.322 22.6648C273.685 22.5341 274.001 22.3438 274.268 22.0938C274.535 21.8438 274.737 21.5341 274.873 21.1648L277.754 21.4886C277.572 22.25 277.225 22.9148 276.714 23.483C276.208 24.0455 275.56 24.483 274.771 24.7955C273.981 25.1023 273.077 25.2557 272.06 25.2557ZM290.838 15.3693L288.026 15.6761C287.946 15.392 287.807 15.125 287.608 14.875C287.415 14.625 287.153 14.4233 286.824 14.2699C286.494 14.1165 286.091 14.0398 285.614 14.0398C284.972 14.0398 284.432 14.179 283.994 14.4574C283.562 14.7358 283.349 15.0966 283.355 15.5398C283.349 15.9205 283.489 16.2301 283.773 16.4688C284.063 16.7074 284.54 16.9034 285.205 17.0568L287.438 17.5341C288.676 17.8011 289.597 18.2244 290.199 18.804C290.807 19.3835 291.114 20.142 291.119 21.0795C291.114 21.9034 290.872 22.6307 290.395 23.2614C289.923 23.8864 289.267 24.375 288.426 24.7273C287.585 25.0795 286.619 25.2557 285.528 25.2557C283.926 25.2557 282.636 24.9205 281.659 24.25C280.682 23.5739 280.099 22.6335 279.912 21.429L282.92 21.1392C283.057 21.7301 283.347 22.1761 283.79 22.4773C284.233 22.7784 284.81 22.929 285.52 22.929C286.253 22.929 286.841 22.7784 287.284 22.4773C287.733 22.1761 287.957 21.804 287.957 21.3608C287.957 20.9858 287.813 20.6761 287.523 20.4318C287.239 20.1875 286.795 20 286.193 19.8693L283.96 19.4006C282.705 19.1392 281.776 18.6989 281.173 18.0795C280.571 17.4545 280.273 16.6648 280.278 15.7102C280.273 14.9034 280.491 14.2045 280.935 13.6136C281.384 13.017 282.006 12.5568 282.801 12.233C283.602 11.9034 284.526 11.7386 285.571 11.7386C287.105 11.7386 288.313 12.0653 289.193 12.7188C290.08 13.3722 290.628 14.2557 290.838 15.3693Z" fill="black"/>
<defs>
<clipPath id="clip0_8_3">
<rect width="34" height="34" fill="white"/>
</clipPath>
</defs>
</svg>
